<svg width="4" height="14" viewBox="0 0 4 14" fill="none" xmlns="http://www.w3.org/2000/svg">
<path opacity="0.5" d="M3.43556 11.7416C3.43556 11.4783 3.36973 11.2362 3.23807 11.0152C3.10642 10.7942 2.93245 10.6179 2.71616 10.4862C2.49987 10.3546 2.26006 10.2887 1.99675 10.2887C1.59239 10.2887 1.25149 10.4298 0.974077 10.7119C0.696661 10.9893 0.557953 11.3326 0.557953 11.7416C0.557953 12.0097 0.62378 12.2542 0.755435 12.4752C0.882389 12.6914 1.05636 12.8654 1.27735 12.9971C1.49364 13.124 1.73344 13.1875 1.99675 13.1875C2.26007 13.1875 2.49987 13.124 2.71616 12.9971C2.93245 12.8654 3.10642 12.6914 3.23807 12.4752C3.36973 12.2542 3.43556 12.0097 3.43556 11.7416ZM3.43556 6.7411C3.43556 6.47779 3.36973 6.23799 3.23807 6.0217C3.10642 5.80541 2.93245 5.63144 2.71616 5.49978C2.49987 5.36813 2.26006 5.3023 1.99675 5.3023C1.59239 5.3023 1.25149 5.44101 0.974077 5.71842C0.696661 5.99584 0.557953 6.33673 0.557953 6.7411C0.557953 7.00911 0.62378 7.25127 0.755435 7.46756C0.882388 7.68385 1.05636 7.85782 1.27735 7.98947C1.49364 8.11643 1.73344 8.1799 1.99675 8.1799C2.26006 8.1799 2.49987 8.11643 2.71616 7.98947C2.93245 7.85782 3.10642 7.68385 3.23807 7.46756C3.36973 7.25127 3.43556 7.00911 3.43556 6.7411ZM3.43556 1.74761C3.43556 1.4796 3.36973 1.23745 3.23807 1.02116C3.10642 0.800166 2.93245 0.626193 2.71616 0.49924C2.49986 0.367585 2.26006 0.301757 1.99675 0.301757C1.59239 0.301757 1.25149 0.440465 0.974076 0.717881C0.69666 0.995297 0.557952 1.33854 0.557952 1.74761C0.557952 2.01562 0.62378 2.26013 0.755435 2.48112C0.882388 2.69741 1.05636 2.87138 1.27735 3.00304C1.49364 3.13469 1.73344 3.20052 1.99675 3.20052C2.26006 3.20052 2.49986 3.13469 2.71616 3.00304C2.93245 2.87138 3.10642 2.69741 3.23807 2.48112C3.36973 2.26013 3.43556 2.01562 3.43556 1.74761Z" fill="#0A0019"/>
</svg>
