<svg width="14" height="16" viewBox="0 0 14 16" fill="none" xmlns="http://www.w3.org/2000/svg">
<path d="M3.7334 3.49072H5.24219V2.26758C5.24219 2.11621 5.28857 1.99658 5.38135 1.90869C5.47412 1.81592 5.60596 1.76953 5.77686 1.76953H8.21582C8.38184 1.76953 8.51367 1.81592 8.61133 1.90869C8.70898 1.99658 8.75781 2.11621 8.75781 2.26758V3.49072H10.252V2.20898C10.252 1.64746 10.0811 1.20801 9.73926 0.890625C9.39746 0.573242 8.92139 0.414551 8.31104 0.414551H5.67432C5.06396 0.414551 4.58789 0.573242 4.24609 0.890625C3.9043 1.20801 3.7334 1.64746 3.7334 2.20898V3.49072ZM0.76709 4.52344H13.2329C13.4136 4.52344 13.5674 4.4624 13.6943 4.34033C13.8213 4.21826 13.8848 4.06201 13.8848 3.87158C13.8848 3.69092 13.8213 3.53955 13.6943 3.41748C13.5674 3.29541 13.4136 3.23438 13.2329 3.23438H0.76709C0.586426 3.23438 0.432617 3.29541 0.305664 3.41748C0.178711 3.53955 0.115234 3.69092 0.115234 3.87158C0.115234 4.06201 0.178711 4.21826 0.305664 4.34033C0.432617 4.4624 0.586426 4.52344 0.76709 4.52344ZM12.3101 4.38428H1.69727L2.14404 14.499C2.16357 14.9824 2.31006 15.3511 2.5835 15.605C2.85693 15.8589 3.23779 15.9858 3.72607 15.9858H10.2812C10.7695 15.9858 11.1479 15.8589 11.4165 15.605C11.6899 15.3511 11.8389 14.9824 11.8633 14.499L12.3101 4.38428ZM4.76611 13.8179C4.62451 13.8179 4.50732 13.7764 4.41455 13.6934C4.32666 13.6055 4.28027 13.4883 4.27539 13.3418L4.07031 6.03955C4.06543 5.89795 4.10693 5.7832 4.19482 5.69531C4.2876 5.60742 4.40723 5.56348 4.55371 5.56348C4.7002 5.56348 4.81982 5.60742 4.9126 5.69531C5.00537 5.77832 5.0542 5.89307 5.05908 6.03955L5.26416 13.3345C5.26904 13.481 5.2251 13.5981 5.13232 13.686C5.03955 13.7739 4.91748 13.8179 4.76611 13.8179ZM7 13.8179C6.85352 13.8179 6.73145 13.7739 6.63379 13.686C6.54102 13.5981 6.49463 13.4834 6.49463 13.3418V6.03223C6.49463 5.89062 6.54102 5.77832 6.63379 5.69531C6.73145 5.60742 6.85352 5.56348 7 5.56348C7.15137 5.56348 7.27344 5.60742 7.36621 5.69531C7.45898 5.77832 7.50537 5.89062 7.50537 6.03223V13.3418C7.50537 13.4834 7.45898 13.5981 7.36621 13.686C7.27344 13.7739 7.15137 13.8179 7 13.8179ZM9.22656 13.8179C9.0752 13.8179 8.95312 13.7739 8.86035 13.686C8.77246 13.5981 8.73096 13.481 8.73584 13.3345L8.94092 6.03955C8.9458 5.89307 8.99463 5.77832 9.0874 5.69531C9.18018 5.60742 9.2998 5.56348 9.44629 5.56348C9.59766 5.56348 9.71729 5.60742 9.80518 5.69531C9.89307 5.7832 9.93457 5.89795 9.92969 6.03955L9.72461 13.3418C9.71973 13.4883 9.6709 13.6055 9.57812 13.6934C9.49023 13.7764 9.37305 13.8179 9.22656 13.8179Z" fill="#FF3B30"/>
</svg>
