<svg width="340" height="471" viewBox="0 0 340 471" fill="none" xmlns="http://www.w3.org/2000/svg">
<mask id="path-1-inside-1_1612_3396" fill="white">
<path fill-rule="evenodd" clip-rule="evenodd" d="M1.95503e-05 10C1.95503e-05 4.47715 4.47717 0 10 0H329.276C334.799 0 339.276 4.47715 339.276 10L339.276 71.9309C335.612 71.9309 332.642 75.0191 332.642 78.8284C332.642 82.6378 335.612 85.7259 339.276 85.7259L339.276 461C339.276 466.523 334.799 471 329.276 471L324.113 471C324.113 467.191 321.143 464.102 317.479 464.102C313.815 464.102 310.845 467.191 310.845 471H299.473C299.473 467.191 296.503 464.102 292.839 464.102C289.175 464.102 286.205 467.191 286.205 471H277.676C277.676 467.191 274.706 464.102 271.042 464.102C267.378 464.102 264.408 467.191 264.408 471H254.931C254.931 467.191 251.961 464.102 248.297 464.102C244.633 464.102 241.663 467.191 241.663 471H232.186C232.186 467.191 229.216 464.102 225.552 464.102C221.888 464.102 218.918 467.191 218.918 471H209.442C209.442 467.191 206.472 464.102 202.808 464.102C199.144 464.102 196.174 467.191 196.174 471H186.697C186.697 467.191 183.727 464.102 180.063 464.102C176.399 464.102 173.429 467.191 173.429 471H163.952C163.952 467.191 160.982 464.102 157.318 464.102C153.654 464.102 150.684 467.191 150.684 471H141.207C141.207 467.191 138.237 464.102 134.573 464.102C130.91 464.102 127.939 467.191 127.939 471H118.462C118.462 467.191 115.492 464.102 111.829 464.102C108.165 464.102 105.195 467.191 105.195 471H96.6654C96.6654 467.191 93.6953 464.102 90.0315 464.102C86.3677 464.102 83.3976 467.191 83.3976 471H73.9206C73.9206 467.191 70.9505 464.102 67.2867 464.102C63.6229 464.102 60.6528 467.191 60.6528 471H51.1758C51.1758 467.191 48.2057 464.102 44.5419 464.102C40.8781 464.102 37.9081 467.191 37.9081 471L28.431 471C28.431 467.191 25.4609 464.102 21.7971 464.102C18.1333 464.102 15.1632 467.191 15.1632 471L10 471C4.47717 471 1.95503e-05 466.523 1.95503e-05 461L0 85.7259C3.6638 85.7259 6.63389 82.6378 6.63389 78.8285C6.63389 75.0191 3.6638 71.931 0 71.931L1.95503e-05 10Z"/>
</mask>
<path fill-rule="evenodd" clip-rule="evenodd" d="M1.95503e-05 10C1.95503e-05 4.47715 4.47717 0 10 0H329.276C334.799 0 339.276 4.47715 339.276 10L339.276 71.9309C335.612 71.9309 332.642 75.0191 332.642 78.8284C332.642 82.6378 335.612 85.7259 339.276 85.7259L339.276 461C339.276 466.523 334.799 471 329.276 471L324.113 471C324.113 467.191 321.143 464.102 317.479 464.102C313.815 464.102 310.845 467.191 310.845 471H299.473C299.473 467.191 296.503 464.102 292.839 464.102C289.175 464.102 286.205 467.191 286.205 471H277.676C277.676 467.191 274.706 464.102 271.042 464.102C267.378 464.102 264.408 467.191 264.408 471H254.931C254.931 467.191 251.961 464.102 248.297 464.102C244.633 464.102 241.663 467.191 241.663 471H232.186C232.186 467.191 229.216 464.102 225.552 464.102C221.888 464.102 218.918 467.191 218.918 471H209.442C209.442 467.191 206.472 464.102 202.808 464.102C199.144 464.102 196.174 467.191 196.174 471H186.697C186.697 467.191 183.727 464.102 180.063 464.102C176.399 464.102 173.429 467.191 173.429 471H163.952C163.952 467.191 160.982 464.102 157.318 464.102C153.654 464.102 150.684 467.191 150.684 471H141.207C141.207 467.191 138.237 464.102 134.573 464.102C130.91 464.102 127.939 467.191 127.939 471H118.462C118.462 467.191 115.492 464.102 111.829 464.102C108.165 464.102 105.195 467.191 105.195 471H96.6654C96.6654 467.191 93.6953 464.102 90.0315 464.102C86.3677 464.102 83.3976 467.191 83.3976 471H73.9206C73.9206 467.191 70.9505 464.102 67.2867 464.102C63.6229 464.102 60.6528 467.191 60.6528 471H51.1758C51.1758 467.191 48.2057 464.102 44.5419 464.102C40.8781 464.102 37.9081 467.191 37.9081 471L28.431 471C28.431 467.191 25.4609 464.102 21.7971 464.102C18.1333 464.102 15.1632 467.191 15.1632 471L10 471C4.47717 471 1.95503e-05 466.523 1.95503e-05 461L0 85.7259C3.6638 85.7259 6.63389 82.6378 6.63389 78.8285C6.63389 75.0191 3.6638 71.931 0 71.931L1.95503e-05 10Z" fill="white"/>
<path d="M1.95503e-05 10L1.00002 10V10H1.95503e-05ZM339.276 10L340.276 10V10H339.276ZM339.276 71.9309V72.9309H340.276L340.276 71.9309L339.276 71.9309ZM339.276 85.7259L340.276 85.7259L340.276 84.7259H339.276V85.7259ZM339.276 461L340.276 461V461L339.276 461ZM329.276 471L329.276 472H329.276V471ZM324.113 471H323.113V472L324.113 472L324.113 471ZM310.845 471V472H311.845V471H310.845ZM299.473 471H298.473V472H299.473V471ZM286.205 471V472H287.205V471H286.205ZM277.676 471H276.676V472H277.676V471ZM264.408 471V472H265.408V471H264.408ZM254.931 471H253.931V472H254.931V471ZM241.663 471V472H242.663V471H241.663ZM232.186 471H231.186V472H232.186V471ZM218.918 471V472H219.918V471H218.918ZM209.442 471H208.442V472H209.442V471ZM196.174 471V472H197.174V471H196.174ZM186.697 471H185.697V472H186.697V471ZM173.429 471V472H174.429V471H173.429ZM163.952 471H162.952V472H163.952V471ZM150.684 471V472H151.684V471H150.684ZM141.207 471H140.207V472H141.207V471ZM127.939 471V472H128.939V471H127.939ZM118.462 471H117.462V472H118.462V471ZM105.195 471V472H106.195V471H105.195ZM96.6654 471H95.6654V472H96.6654V471ZM83.3976 471V472H84.3976V471H83.3976ZM73.9206 471H72.9206V472H73.9206V471ZM60.6528 471V472H61.6528V471H60.6528ZM51.1758 471H50.1758V472H51.1758V471ZM37.9081 471L37.9081 472L38.9081 472V471H37.9081ZM28.431 471H27.431V472L28.431 472L28.431 471ZM15.1632 471L15.1632 472L16.1632 472V471H15.1632ZM10 471L10 472L10 472L10 471ZM1.95503e-05 461L1.00002 461L1.00002 461L1.95503e-05 461ZM0 85.7259V84.7259H-1L-1 85.7259L0 85.7259ZM0 71.931L-1 71.931L-1 72.931H0V71.931ZM10 -1C3.92489 -1 -0.99998 3.92486 -0.99998 10H1.00002C1.00002 5.02943 5.02946 1 10 1V-1ZM329.276 -1H10V1H329.276V-1ZM340.276 10C340.276 3.92487 335.351 -1 329.276 -1V1C334.247 1 338.276 5.02944 338.276 10H340.276ZM340.276 71.9309L340.276 10L338.276 10L338.276 71.9309L340.276 71.9309ZM333.642 78.8284C333.642 75.5343 336.201 72.9309 339.276 72.9309V70.9309C335.024 70.9309 331.642 74.5039 331.642 78.8284H333.642ZM339.276 84.7259C336.201 84.7259 333.642 82.1226 333.642 78.8284H331.642C331.642 83.153 335.024 86.7259 339.276 86.7259V84.7259ZM340.276 461L340.276 85.7259L338.276 85.7259L338.276 461L340.276 461ZM329.276 472C335.351 472 340.276 467.075 340.276 461H338.276C338.276 465.971 334.247 470 329.276 470V472ZM324.113 472L329.276 472L329.276 470L324.113 470L324.113 472ZM317.479 465.102C320.554 465.102 323.113 467.706 323.113 471H325.113C325.113 466.675 321.732 463.102 317.479 463.102V465.102ZM311.845 471C311.845 467.706 314.404 465.102 317.479 465.102V463.102C313.227 463.102 309.845 466.675 309.845 471H311.845ZM299.473 472H310.845V470H299.473V472ZM292.839 465.102C295.914 465.102 298.473 467.706 298.473 471H300.473C300.473 466.675 297.091 463.102 292.839 463.102V465.102ZM287.205 471C287.205 467.706 289.764 465.102 292.839 465.102V463.102C288.587 463.102 285.205 466.675 285.205 471H287.205ZM277.676 472H286.205V470H277.676V472ZM271.042 465.102C274.117 465.102 276.676 467.706 276.676 471H278.676C278.676 466.675 275.294 463.102 271.042 463.102V465.102ZM265.408 471C265.408 467.706 267.967 465.102 271.042 465.102V463.102C266.79 463.102 263.408 466.675 263.408 471H265.408ZM254.931 472H264.408V470H254.931V472ZM248.297 465.102C251.372 465.102 253.931 467.706 253.931 471H255.931C255.931 466.675 252.549 463.102 248.297 463.102V465.102ZM242.663 471C242.663 467.706 245.222 465.102 248.297 465.102V463.102C244.045 463.102 240.663 466.675 240.663 471H242.663ZM232.186 472H241.663V470H232.186V472ZM225.552 465.102C228.627 465.102 231.186 467.706 231.186 471H233.186C233.186 466.675 229.805 463.102 225.552 463.102V465.102ZM219.918 471C219.918 467.706 222.477 465.102 225.552 465.102V463.102C221.3 463.102 217.918 466.675 217.918 471H219.918ZM209.442 472H218.918V470H209.442V472ZM202.808 465.102C205.883 465.102 208.442 467.706 208.442 471H210.442C210.442 466.675 207.06 463.102 202.808 463.102V465.102ZM197.174 471C197.174 467.706 199.733 465.102 202.808 465.102V463.102C198.555 463.102 195.174 466.675 195.174 471H197.174ZM186.697 472H196.174V470H186.697V472ZM180.063 465.102C183.138 465.102 185.697 467.706 185.697 471H187.697C187.697 466.675 184.315 463.102 180.063 463.102V465.102ZM174.429 471C174.429 467.706 176.988 465.102 180.063 465.102V463.102C175.81 463.102 172.429 466.675 172.429 471H174.429ZM163.952 472H173.429V470H163.952V472ZM157.318 465.102C160.393 465.102 162.952 467.706 162.952 471H164.952C164.952 466.675 161.571 463.102 157.318 463.102V465.102ZM151.684 471C151.684 467.706 154.243 465.102 157.318 465.102V463.102C153.066 463.102 149.684 466.675 149.684 471H151.684ZM141.207 472H150.684V470H141.207V472ZM134.573 465.102C137.649 465.102 140.207 467.706 140.207 471H142.207C142.207 466.675 138.826 463.102 134.573 463.102V465.102ZM128.939 471C128.939 467.706 131.498 465.102 134.573 465.102V463.102C130.321 463.102 126.939 466.675 126.939 471H128.939ZM118.462 472H127.939V470H118.462V472ZM111.829 465.102C114.904 465.102 117.462 467.706 117.462 471H119.462C119.462 466.675 116.081 463.102 111.829 463.102V465.102ZM106.195 471C106.195 467.706 108.753 465.102 111.829 465.102V463.102C107.576 463.102 104.195 466.675 104.195 471H106.195ZM96.6654 472H105.195V470H96.6654V472ZM90.0315 465.102C93.1067 465.102 95.6654 467.706 95.6654 471H97.6654C97.6654 466.675 94.284 463.102 90.0315 463.102V465.102ZM84.3976 471C84.3976 467.706 86.9564 465.102 90.0315 465.102V463.102C85.7791 463.102 82.3976 466.675 82.3976 471H84.3976ZM73.9206 472H83.3976V470H73.9206V472ZM67.2867 465.102C70.3618 465.102 72.9206 467.706 72.9206 471H74.9206C74.9206 466.675 71.5391 463.102 67.2867 463.102V465.102ZM61.6528 471C61.6528 467.706 64.2115 465.102 67.2867 465.102V463.102C63.0342 463.102 59.6528 466.675 59.6528 471H61.6528ZM51.1758 472H60.6528V470H51.1758V472ZM44.5419 465.102C47.6171 465.102 50.1758 467.706 50.1758 471H52.1758C52.1758 466.675 48.7944 463.102 44.5419 463.102V465.102ZM38.9081 471C38.9081 467.706 41.4668 465.102 44.5419 465.102V463.102C40.2895 463.102 36.9081 466.675 36.9081 471H38.9081ZM28.431 472L37.9081 472L37.9081 470L28.431 470L28.431 472ZM21.7971 465.102C24.8723 465.102 27.431 467.706 27.431 471H29.431C29.431 466.675 26.0496 463.102 21.7971 463.102V465.102ZM16.1632 471C16.1632 467.706 18.722 465.102 21.7971 465.102V463.102C17.5447 463.102 14.1632 466.675 14.1632 471H16.1632ZM10 472L15.1632 472L15.1632 470L10 470L10 472ZM-0.99998 461C-0.99998 467.075 3.92488 472 10 472V470C5.02945 470 1.00002 465.971 1.00002 461H-0.99998ZM-1 85.7259L-0.99998 461L1.00002 461L1 85.7259L-1 85.7259ZM5.63389 78.8285C5.63389 82.1226 3.07514 84.7259 0 84.7259V86.7259C4.25245 86.7259 7.63389 83.153 7.63389 78.8285H5.63389ZM0 72.931C3.07514 72.931 5.63389 75.5343 5.63389 78.8285H7.63389C7.63389 74.5039 4.25245 70.931 0 70.931V72.931ZM-0.99998 9.99999L-1 71.931L1 71.931L1.00002 10L-0.99998 9.99999Z" fill="black" fill-opacity="0.15" mask="url(#path-1-inside-1_1612_3396)"/>
<path d="M1.95503e-05 10L1.00002 10V10H1.95503e-05ZM339.276 10L340.276 10V10H339.276ZM339.276 71.9309V72.9309H340.276L340.276 71.9309L339.276 71.9309ZM339.276 85.7259L340.276 85.7259L340.276 84.7259H339.276V85.7259ZM339.276 461L340.276 461V461L339.276 461ZM329.276 471L329.276 472H329.276V471ZM324.113 471H323.113V472L324.113 472L324.113 471ZM310.845 471V472H311.845V471H310.845ZM299.473 471H298.473V472H299.473V471ZM286.205 471V472H287.205V471H286.205ZM277.676 471H276.676V472H277.676V471ZM264.408 471V472H265.408V471H264.408ZM254.931 471H253.931V472H254.931V471ZM241.663 471V472H242.663V471H241.663ZM232.186 471H231.186V472H232.186V471ZM218.918 471V472H219.918V471H218.918ZM209.442 471H208.442V472H209.442V471ZM196.174 471V472H197.174V471H196.174ZM186.697 471H185.697V472H186.697V471ZM173.429 471V472H174.429V471H173.429ZM163.952 471H162.952V472H163.952V471ZM150.684 471V472H151.684V471H150.684ZM141.207 471H140.207V472H141.207V471ZM127.939 471V472H128.939V471H127.939ZM118.462 471H117.462V472H118.462V471ZM105.195 471V472H106.195V471H105.195ZM96.6654 471H95.6654V472H96.6654V471ZM83.3976 471V472H84.3976V471H83.3976ZM73.9206 471H72.9206V472H73.9206V471ZM60.6528 471V472H61.6528V471H60.6528ZM51.1758 471H50.1758V472H51.1758V471ZM37.9081 471L37.9081 472L38.9081 472V471H37.9081ZM28.431 471H27.431V472L28.431 472L28.431 471ZM15.1632 471L15.1632 472L16.1632 472V471H15.1632ZM10 471L10 472L10 472L10 471ZM1.95503e-05 461L1.00002 461L1.00002 461L1.95503e-05 461ZM0 85.7259V84.7259H-1L-1 85.7259L0 85.7259ZM0 71.931L-1 71.931L-1 72.931H0V71.931ZM10 -1C3.92489 -1 -0.99998 3.92486 -0.99998 10H1.00002C1.00002 5.02943 5.02946 1 10 1V-1ZM329.276 -1H10V1H329.276V-1ZM340.276 10C340.276 3.92487 335.351 -1 329.276 -1V1C334.247 1 338.276 5.02944 338.276 10H340.276ZM340.276 71.9309L340.276 10L338.276 10L338.276 71.9309L340.276 71.9309ZM333.642 78.8284C333.642 75.5343 336.201 72.9309 339.276 72.9309V70.9309C335.024 70.9309 331.642 74.5039 331.642 78.8284H333.642ZM339.276 84.7259C336.201 84.7259 333.642 82.1226 333.642 78.8284H331.642C331.642 83.153 335.024 86.7259 339.276 86.7259V84.7259ZM340.276 461L340.276 85.7259L338.276 85.7259L338.276 461L340.276 461ZM329.276 472C335.351 472 340.276 467.075 340.276 461H338.276C338.276 465.971 334.247 470 329.276 470V472ZM324.113 472L329.276 472L329.276 470L324.113 470L324.113 472ZM317.479 465.102C320.554 465.102 323.113 467.706 323.113 471H325.113C325.113 466.675 321.732 463.102 317.479 463.102V465.102ZM311.845 471C311.845 467.706 314.404 465.102 317.479 465.102V463.102C313.227 463.102 309.845 466.675 309.845 471H311.845ZM299.473 472H310.845V470H299.473V472ZM292.839 465.102C295.914 465.102 298.473 467.706 298.473 471H300.473C300.473 466.675 297.091 463.102 292.839 463.102V465.102ZM287.205 471C287.205 467.706 289.764 465.102 292.839 465.102V463.102C288.587 463.102 285.205 466.675 285.205 471H287.205ZM277.676 472H286.205V470H277.676V472ZM271.042 465.102C274.117 465.102 276.676 467.706 276.676 471H278.676C278.676 466.675 275.294 463.102 271.042 463.102V465.102ZM265.408 471C265.408 467.706 267.967 465.102 271.042 465.102V463.102C266.79 463.102 263.408 466.675 263.408 471H265.408ZM254.931 472H264.408V470H254.931V472ZM248.297 465.102C251.372 465.102 253.931 467.706 253.931 471H255.931C255.931 466.675 252.549 463.102 248.297 463.102V465.102ZM242.663 471C242.663 467.706 245.222 465.102 248.297 465.102V463.102C244.045 463.102 240.663 466.675 240.663 471H242.663ZM232.186 472H241.663V470H232.186V472ZM225.552 465.102C228.627 465.102 231.186 467.706 231.186 471H233.186C233.186 466.675 229.805 463.102 225.552 463.102V465.102ZM219.918 471C219.918 467.706 222.477 465.102 225.552 465.102V463.102C221.3 463.102 217.918 466.675 217.918 471H219.918ZM209.442 472H218.918V470H209.442V472ZM202.808 465.102C205.883 465.102 208.442 467.706 208.442 471H210.442C210.442 466.675 207.06 463.102 202.808 463.102V465.102ZM197.174 471C197.174 467.706 199.733 465.102 202.808 465.102V463.102C198.555 463.102 195.174 466.675 195.174 471H197.174ZM186.697 472H196.174V470H186.697V472ZM180.063 465.102C183.138 465.102 185.697 467.706 185.697 471H187.697C187.697 466.675 184.315 463.102 180.063 463.102V465.102ZM174.429 471C174.429 467.706 176.988 465.102 180.063 465.102V463.102C175.81 463.102 172.429 466.675 172.429 471H174.429ZM163.952 472H173.429V470H163.952V472ZM157.318 465.102C160.393 465.102 162.952 467.706 162.952 471H164.952C164.952 466.675 161.571 463.102 157.318 463.102V465.102ZM151.684 471C151.684 467.706 154.243 465.102 157.318 465.102V463.102C153.066 463.102 149.684 466.675 149.684 471H151.684ZM141.207 472H150.684V470H141.207V472ZM134.573 465.102C137.649 465.102 140.207 467.706 140.207 471H142.207C142.207 466.675 138.826 463.102 134.573 463.102V465.102ZM128.939 471C128.939 467.706 131.498 465.102 134.573 465.102V463.102C130.321 463.102 126.939 466.675 126.939 471H128.939ZM118.462 472H127.939V470H118.462V472ZM111.829 465.102C114.904 465.102 117.462 467.706 117.462 471H119.462C119.462 466.675 116.081 463.102 111.829 463.102V465.102ZM106.195 471C106.195 467.706 108.753 465.102 111.829 465.102V463.102C107.576 463.102 104.195 466.675 104.195 471H106.195ZM96.6654 472H105.195V470H96.6654V472ZM90.0315 465.102C93.1067 465.102 95.6654 467.706 95.6654 471H97.6654C97.6654 466.675 94.284 463.102 90.0315 463.102V465.102ZM84.3976 471C84.3976 467.706 86.9564 465.102 90.0315 465.102V463.102C85.7791 463.102 82.3976 466.675 82.3976 471H84.3976ZM73.9206 472H83.3976V470H73.9206V472ZM67.2867 465.102C70.3618 465.102 72.9206 467.706 72.9206 471H74.9206C74.9206 466.675 71.5391 463.102 67.2867 463.102V465.102ZM61.6528 471C61.6528 467.706 64.2115 465.102 67.2867 465.102V463.102C63.0342 463.102 59.6528 466.675 59.6528 471H61.6528ZM51.1758 472H60.6528V470H51.1758V472ZM44.5419 465.102C47.6171 465.102 50.1758 467.706 50.1758 471H52.1758C52.1758 466.675 48.7944 463.102 44.5419 463.102V465.102ZM38.9081 471C38.9081 467.706 41.4668 465.102 44.5419 465.102V463.102C40.2895 463.102 36.9081 466.675 36.9081 471H38.9081ZM28.431 472L37.9081 472L37.9081 470L28.431 470L28.431 472ZM21.7971 465.102C24.8723 465.102 27.431 467.706 27.431 471H29.431C29.431 466.675 26.0496 463.102 21.7971 463.102V465.102ZM16.1632 471C16.1632 467.706 18.722 465.102 21.7971 465.102V463.102C17.5447 463.102 14.1632 466.675 14.1632 471H16.1632ZM10 472L15.1632 472L15.1632 470L10 470L10 472ZM-0.99998 461C-0.99998 467.075 3.92488 472 10 472V470C5.02945 470 1.00002 465.971 1.00002 461H-0.99998ZM-1 85.7259L-0.99998 461L1.00002 461L1 85.7259L-1 85.7259ZM5.63389 78.8285C5.63389 82.1226 3.07514 84.7259 0 84.7259V86.7259C4.25245 86.7259 7.63389 83.153 7.63389 78.8285H5.63389ZM0 72.931C3.07514 72.931 5.63389 75.5343 5.63389 78.8285H7.63389C7.63389 74.5039 4.25245 70.931 0 70.931V72.931ZM-0.99998 9.99999L-1 71.931L1 71.931L1.00002 10L-0.99998 9.99999Z" fill="black" fill-opacity="0.05" mask="url(#path-1-inside-1_1612_3396)"/>
</svg>
