<svg width="12" height="12" viewBox="0 0 12 12" fill="none" xmlns="http://www.w3.org/2000/svg">
<path d="M2.95911 11.6398L5.05011 10.7145C5.19308 10.6533 5.31372 10.5709 5.41201 10.4673L11.5443 4.04009C11.8481 3.7152 12 3.36911 12 3.00184C12 2.62986 11.8436 2.28142 11.5309 1.95653L10.1436 0.487444C9.83975 0.162549 9.51135 0.000102361 9.15839 0.000102361C8.80989 -0.00460625 8.48149 0.153132 8.1732 0.473318L2.03424 6.89351C1.98063 6.95001 1.93595 7.00652 1.9002 7.06302C1.86893 7.11482 1.83542 7.18309 1.79968 7.26785L0.90832 9.47854C0.832365 9.66217 0.805557 9.84346 0.827897 10.0224C0.854704 10.2013 0.932894 10.3614 1.06246 10.5027L1.98063 11.4703C2.1102 11.6068 2.25987 11.6892 2.42966 11.7175C2.59944 11.7457 2.77592 11.7198 2.95911 11.6398ZM2.81837 10.4108C2.76028 10.4344 2.7089 10.4438 2.66422 10.4391C2.61954 10.4344 2.5704 10.4014 2.51678 10.3402L2.13477 9.93763C2.04988 9.84816 2.03201 9.74457 2.08116 9.62686L2.84518 7.74812L8.90371 1.39856C9.07349 1.22434 9.23657 1.22199 9.39295 1.3915L10.673 2.74758C10.8339 2.91709 10.8294 3.09131 10.6596 3.27023L4.60778 9.61273L2.81837 10.4108ZM0.318551 12H1.1764C1.27469 12 1.34841 11.9882 1.39756 11.9647C1.45118 11.9411 1.51373 11.9011 1.58521 11.8446L2.242 11.3078L1.23671 10.2413L0.110791 11.4773C0.00802835 11.5856 -0.0232473 11.701 0.0169642 11.8234C0.0616437 11.9411 0.162173 12 0.318551 12ZM2.08786 7.69868L4.78873 10.5592L5.49914 9.8105L2.80496 6.95001L2.08786 7.69868ZM7.38238 2.15429L10.0833 5.00771L10.8004 4.26611L8.09948 1.40562L7.38238 2.15429Z" fill="#00941D"/>
</svg>
