<svg width="4" height="13" viewBox="0 0 4 13" fill="none" xmlns="http://www.w3.org/2000/svg">
<path d="M3.5 1.39291C3.5 0.646481 2.825 0.0357666 2 0.0357665C1.175 0.0357665 0.5 0.646481 0.5 1.39291C0.5 2.13934 1.175 2.75005 2 2.75005C2.825 2.75005 3.5 2.13934 3.5 1.39291ZM3.5 10.8929C3.5 10.1465 2.825 9.53577 2 9.53577C1.175 9.53577 0.5 10.1465 0.499999 10.8929C0.499999 11.6393 1.175 12.2501 2 12.2501C2.825 12.2501 3.5 11.6393 3.5 10.8929ZM3.5 6.14291C3.5 5.39648 2.825 4.78577 2 4.78577C1.175 4.78577 0.5 5.39648 0.5 6.14291C0.5 6.88934 1.175 7.50005 2 7.50005C2.825 7.50005 3.5 6.88934 3.5 6.14291Z" fill="#ADAAB2"/>
</svg>
